<svg width="600" height="400" viewBox="0 0 600 400" fill="none" xmlns="http://www.w3.org/2000/svg">
  <!-- Bakgrund -->
  <rect width="600" height="400" rx="20" fill="url(#paint0_linear)" />
  
  <!-- Prickmönster -->
  <circle cx="50" cy="50" r="5" fill="white" fill-opacity="0.1" />
  <circle cx="100" cy="50" r="5" fill="white" fill-opacity="0.1" />
  <circle cx="150" cy="50" r="5" fill="white" fill-opacity="0.1" />
  <circle cx="50" cy="100" r="5" fill="white" fill-opacity="0.1" />
  <circle cx="100" cy="100" r="5" fill="white" fill-opacity="0.1" />
  <circle cx="150" cy="100" r="5" fill="white" fill-opacity="0.1" />
  <circle cx="50" cy="150" r="5" fill="white" fill-opacity="0.1" />
  <circle cx="100" cy="150" r="5" fill="white" fill-opacity="0.1" />
  <circle cx="150" cy="150" r="5" fill="white" fill-opacity="0.1" />
  
  <circle cx="450" cy="250" r="5" fill="white" fill-opacity="0.1" />
  <circle cx="500" cy="250" r="5" fill="white" fill-opacity="0.1" />
  <circle cx="550" cy="250" r="5" fill="white" fill-opacity="0.1" />
  <circle cx="450" cy="300" r="5" fill="white" fill-opacity="0.1" />
  <circle cx="500" cy="300" r="5" fill="white" fill-opacity="0.1" />
  <circle cx="550" cy="300" r="5" fill="white" fill-opacity="0.1" />
  <circle cx="450" cy="350" r="5" fill="white" fill-opacity="0.1" />
  <circle cx="500" cy="350" r="5" fill="white" fill-opacity="0.1" />
  <circle cx="550" cy="350" r="5" fill="white" fill-opacity="0.1" />
  
  <!-- Vänner som satsar -->
  <!-- Person 1 -->
  <circle cx="250" cy="150" r="50" fill="white" />
  <circle cx="250" cy="120" r="20" fill="#60A5FA" />
  <rect x="230" y="150" width="40" height="60" rx="10" fill="#60A5FA" />
  
  <!-- Person 2 -->
  <circle cx="350" cy="150" r="50" fill="white" />
  <circle cx="350" cy="120" r="20" fill="#0EA5E9" />
  <rect x="330" y="150" width="40" height="60" rx="10" fill="#0EA5E9" />
  
  <!-- Beting -->
  <rect x="225" y="250" width="150" height="80" rx="10" fill="white" />
  <rect x="240" y="270" width="120" height="10" rx="5" fill="#60A5FA" />
  <rect x="240" y="290" width="80" height="10" rx="5" fill="#0EA5E9" />
  <rect x="240" y="310" width="60" height="10" rx="5" fill="#2563EB" />
  
  <!-- Mynt -->
  <circle cx="180" cy="250" r="30" fill="#F59E0B" />
  <circle cx="180" cy="250" r="25" fill="#FBBF24" />
  <text x="170" y="255" font-family="Arial" font-size="16" font-weight="bold" fill="white">GC</text>
  
  <circle cx="420" cy="250" r="30" fill="#F59E0B" />
  <circle cx="420" cy="250" r="25" fill="#FBBF24" />
  <text x="410" y="255" font-family="Arial" font-size="16" font-weight="bold" fill="white">GC</text>
  
  <!-- Gradient definitions -->
  <defs>
    <linearGradient id="paint0_linear" x1="0" y1="0" x2="600" y2="400" gradientUnits="userSpaceOnUse">
      <stop stop-color="#2563EB" />
      <stop offset="1" stop-color="#0369A1" />
    </linearGradient>
  </defs>
</svg> 