<svg width="400" height="300" viewBox="0 0 400 300" fill="none" xmlns="http://www.w3.org/2000/svg">
  <!-- Bakgrund -->
  <rect width="400" height="300" rx="20" fill="none"/>
  
  <!-- Personer runt ett bord -->
  <!-- Person 1 (vänster) -->
  <circle cx="100" cy="140" r="40" fill="#60A5FA" />
  <circle cx="100" cy="110" r="20" fill="#F8FAFC" />
  <path d="M90 110 A10 10 0 0 1 110 110" stroke="#2563EB" stroke-width="2" fill="none" />
  <circle cx="90" cy="105" r="3" fill="#2563EB" />
  <circle cx="110" cy="105" r="3" fill="#2563EB" />
  <rect x="85" y="140" width="30" height="50" rx="10" fill="#60A5FA" />
  
  <!-- Person 2 (höger) -->
  <circle cx="300" cy="140" r="40" fill="#0EA5E9" />
  <circle cx="300" cy="110" r="20" fill="#F8FAFC" />
  <path d="M290 110 A10 10 0 0 1 310 110" stroke="#2563EB" stroke-width="2" fill="none" />
  <circle cx="290" cy="105" r="3" fill="#2563EB" />
  <circle cx="310" cy="105" r="3" fill="#2563EB" />
  <rect x="285" y="140" width="30" height="50" rx="10" fill="#0EA5E9" />
  
  <!-- Person 3 (övre) -->
  <circle cx="200" cy="90" r="40" fill="#2563EB" />
  <circle cx="200" cy="60" r="20" fill="#F8FAFC" />
  <path d="M190 60 A10 10 0 0 1 210 60" stroke="#2563EB" stroke-width="2" fill="none" />
  <circle cx="190" cy="55" r="3" fill="#2563EB" />
  <circle cx="210" cy="55" r="3" fill="#2563EB" />
  <rect x="185" y="90" width="30" height="50" rx="10" fill="#2563EB" />
  
  <!-- Bord med kort och mynt -->
  <ellipse cx="200" cy="200" rx="120" ry="40" fill="#F1F5F9" />
  <ellipse cx="200" cy="200" rx="110" ry="35" fill="white" stroke="#E2E8F0" stroke-width="2" />
  
  <!-- Spelkort på bordet -->
  <rect x="170" y="170" width="30" height="40" rx="4" fill="#2563EB" />
  <rect x="175" y="175" width="20" height="30" rx="2" fill="white" />
  <circle cx="185" cy="180" r="3" fill="#EF4444" />
  <circle cx="185" cy="200" r="3" fill="#EF4444" />
  
  <rect x="150" y="180" width="30" height="40" rx="4" transform="rotate(-10 150 180)" fill="#0EA5E9" />
  <rect x="155" y="185" width="20" height="30" rx="2" transform="rotate(-10 155 185)" fill="white" />
  <circle cx="165" cy="190" r="3" transform="rotate(-10 165 190)" fill="#EF4444" />
  <circle cx="165" cy="210" r="3" transform="rotate(-10 165 210)" fill="#EF4444" />
  
  <rect x="210" y="175" width="30" height="40" rx="4" transform="rotate(15 210 175)" fill="#60A5FA" />
  <rect x="215" y="180" width="20" height="30" rx="2" transform="rotate(15 215 180)" fill="white" />
  <circle cx="225" cy="185" r="3" transform="rotate(15 225 185)" fill="#EF4444" />
  <circle cx="225" cy="205" r="3" transform="rotate(15 225 205)" fill="#EF4444" />
  
  <!-- Mynt på bordet -->
  <circle cx="160" cy="220" r="15" fill="#F59E0B" />
  <circle cx="160" cy="220" r="12" fill="#FBBF24" />
  <text x="155" y="225" font-family="Arial" font-size="10" font-weight="bold" fill="white">GC</text>
  
  <circle cx="190" cy="230" r="15" fill="#F59E0B" />
  <circle cx="190" cy="230" r="12" fill="#FBBF24" />
  <text x="185" y="235" font-family="Arial" font-size="10" font-weight="bold" fill="white">GC</text>
  
  <circle cx="220" cy="215" r="15" fill="#F59E0B" />
  <circle cx="220" cy="215" r="12" fill="#FBBF24" />
  <text x="215" y="220" font-family="Arial" font-size="10" font-weight="bold" fill="white">GC</text>
  
  <circle cx="240" cy="235" r="15" fill="#F59E0B" />
  <circle cx="240" cy="235" r="12" fill="#FBBF24" />
  <text x="235" y="240" font-family="Arial" font-size="10" font-weight="bold" fill="white">GC</text>
  
  <!-- Smartphone med app -->
  <rect x="130" y="130" width="50" height="80" rx="8" fill="#1E293B" />
  <rect x="135" y="135" width="40" height="70" rx="3" fill="#2563EB" />
  <rect x="140" y="140" width="30" height="10" rx="2" fill="white" />
  <rect x="140" y="155" width="30" height="5" rx="2" fill="white" opacity="0.8" />
  <rect x="140" y="165" width="20" height="5" rx="2" fill="white" opacity="0.8" />
  <rect x="140" y="175" width="30" height="10" rx="5" fill="#60A5FA" />
  <circle cx="155" cy="195" r="5" fill="white" opacity="0.5" />
  
  <!-- Händer som når efter kort och mynt -->
  <path d="M115 170 C120 180, 130 185, 140 180" stroke="#60A5FA" stroke-width="8" stroke-linecap="round" />
  <path d="M285 170 C280 180, 270 185, 260 180" stroke="#0EA5E9" stroke-width="8" stroke-linecap="round" />
  <path d="M200 140 C200 150, 200 160, 200 170" stroke="#2563EB" stroke-width="8" stroke-linecap="round" />
</svg> 