<svg width="200" height="60" viewBox="0 0 200 60" fill="none" xmlns="http://www.w3.org/2000/svg">
  <!-- Bakgrund -->
  <rect width="200" height="60" fill="none"/>
  
  <!-- Logotyp bokstäver "GoBet" -->
  <path d="M40 15C31.716 15 25 21.716 25 30C25 38.284 31.716 45 40 45C44.4444 45 48.468 43.0884 51.1805 40H45C41.134 40 38 36.866 38 33V30H58V28C58 20.8203 49.8857 15 40 15ZM40 20C43.866 20 47 23.134 47 27H38V30C38 31.5 39.5 35 45 35H47.5996C45.9065 37.403 43.1304 39 40 39C35.0294 39 31 34.9706 31 30C31 25.0294 35.0294 21 40 21C42.0159 21 43.9033 21.671 45.3877 22.8164L48.721 17.541C46.0945 15.9194 43.084 15 40 15C31.716 15 25 21.716 25 30C25 38.284 31.716 45 40 45C48.284 45 55 38.284 55 30C55 21.716 48.284 15 40 15Z" fill="url(#paint0_linear)"/>
  
  <path d="M76.2 43V17.8H87.12C90.04 17.8 92.28 18.46 93.84 19.78C95.4 21.1 96.18 22.86 96.18 25.06C96.18 26.58 95.84 27.88 95.16 28.96C94.48 30.04 93.46 30.84 92.1 31.36C93.66 31.8 94.86 32.64 95.7 33.88C96.54 35.12 96.96 36.56 96.96 38.2C96.96 40.56 96.14 42.42 94.5 43.78C92.86 45.14 90.58 45.82 87.66 45.82C86.78 45.82 85.16 45.78 82.8 45.7C80.44 45.62 78.36 45.42 76.56 45.1C76.4 44.38 76.3 43.7 76.2 43ZM82.8 29.06H86.1C87.94 29.06 88.86 28.18 88.86 26.42C88.86 24.78 87.9 23.96 85.98 23.96H82.8V29.06ZM82.8 39.58H87.12C88.16 39.58 88.96 39.34 89.52 38.86C90.08 38.38 90.36 37.7 90.36 36.82C90.36 35.06 89.14 34.18 86.7 34.18H82.8V39.58Z" fill="url(#paint0_linear)"/>
  
  <path d="M114.617 34.72H106.057V45.1H99.457V17.8H106.057V28.54H114.617V17.8H121.217V45.1H114.617V34.72Z" fill="url(#paint0_linear)"/>
  
  <path d="M136.178 45.64C132.858 45.64 130.238 44.64 128.318 42.64C126.398 40.64 125.438 37.88 125.438 34.36V17.8H132.038V34.06C132.038 35.86 132.458 37.22 133.298 38.14C134.138 39.06 135.318 39.52 136.838 39.52C138.358 39.52 139.538 39.06 140.378 38.14C141.218 37.22 141.638 35.86 141.638 34.06V17.8H148.178V34.36C148.178 37.88 147.218 40.64 145.298 42.64C143.378 44.64 140.778 45.64 137.478 45.64H136.178Z" fill="url(#paint0_linear)"/>
  
  <path d="M152.888 45.1V17.8H159.488V39.04H170.528V45.1H152.888Z" fill="url(#paint0_linear)"/>
  
  <!-- Spelikon (tärning) -->
  <rect x="10" y="15" width="30" height="30" rx="6" fill="url(#paint1_linear)"/>
  <circle cx="18" cy="23" r="3" fill="white"/>
  <circle cx="32" cy="23" r="3" fill="white"/>
  <circle cx="18" cy="37" r="3" fill="white"/>
  <circle cx="32" cy="37" r="3" fill="white"/>
  <circle cx="25" cy="30" r="3" fill="white"/>
  
  <!-- Gradientdefinitioner -->
  <defs>
    <linearGradient id="paint0_linear" x1="25" y1="15" x2="170" y2="45" gradientUnits="userSpaceOnUse">
      <stop stop-color="#2563EB"/>
      <stop offset="1" stop-color="#0EA5E9"/>
    </linearGradient>
    <linearGradient id="paint1_linear" x1="10" y1="15" x2="40" y2="45" gradientUnits="userSpaceOnUse">
      <stop stop-color="#2563EB"/>
      <stop offset="1" stop-color="#60A5FA"/>
    </linearGradient>
  </defs>
</svg> 