<svg xmlns="http://www.w3.org/2000/svg" viewBox="0 0 800 500" width="800" height="500">
  <defs>
    <linearGradient id="gradBg" x1="0%" y1="0%" x2="100%" y2="100%">
      <stop offset="0%" style="stop-color:#6B46C1;stop-opacity:0.1" />
      <stop offset="100%" style="stop-color:#6B46C1;stop-opacity:0.3" />
    </linearGradient>
    <linearGradient id="gradMain" x1="0%" y1="0%" x2="100%" y2="100%">
      <stop offset="0%" style="stop-color:#6B46C1;stop-opacity:1" />
      <stop offset="100%" style="stop-color:#805AD5;stop-opacity:1" />
    </linearGradient>
  </defs>
  
  <!-- Bakgrund -->
  <rect width="800" height="500" fill="white" />
  <circle cx="400" cy="250" r="200" fill="url(#gradBg)" />
  
  <!-- Mobil-enhet -->
  <rect x="300" y="100" width="200" height="350" rx="20" fill="white" stroke="#6B46C1" stroke-width="8" />
  <rect x="320" y="130" width="160" height="270" rx="4" fill="#F7FAFC" />
  <circle cx="400" cy="425" r="15" fill="#E2E8F0" />
  
  <!-- Inloggningsformulär -->
  <rect x="340" y="150" width="120" height="30" rx="4" fill="#E2E8F0" />
  <rect x="340" y="190" width="120" height="30" rx="4" fill="#E2E8F0" />
  <rect x="340" y="240" width="120" height="35" rx="6" fill="url(#gradMain)" />
  <text x="400" y="262" font-family="Arial, sans-serif" font-size="12" text-anchor="middle" fill="white">LOGGA IN</text>
  
  <!-- Ikoner i cirklar -->
  <circle cx="350" cy="310" r="15" fill="#E2E8F0" />
  <circle cx="400" cy="310" r="15" fill="#E2E8F0" />
  <circle cx="450" cy="310" r="15" fill="#E2E8F0" />
  
  <!-- Dekorativa element -->
  <path d="M150 100 C 200 50, 250 150, 300 100" stroke="#6B46C1" stroke-width="5" fill="none" />
  <path d="M500 400 C 550 350, 600 450, 650 400" stroke="#6B46C1" stroke-width="5" fill="none" />
  
  <circle cx="200" cy="200" r="30" fill="url(#gradMain)" />
  <circle cx="600" cy="300" r="40" fill="url(#gradMain)" />
  <circle cx="500" cy="150" r="20" fill="url(#gradMain)" />
  <circle cx="250" cy="350" r="25" fill="url(#gradMain)" />
</svg> 