<svg xmlns="http://www.w3.org/2000/svg" viewBox="0 0 200 80" width="200" height="80">
  <defs>
    <linearGradient id="grad1" x1="0%" y1="0%" x2="100%" y2="100%">
      <stop offset="0%" style="stop-color:#8A4FFF;stop-opacity:1" />
      <stop offset="100%" style="stop-color:#6B46C1;stop-opacity:1" />
    </linearGradient>
    <filter id="shadow" x="-20%" y="-20%" width="140%" height="140%">
      <feDropShadow dx="0" dy="2" stdDeviation="2" flood-color="#000000" flood-opacity="0.3"/>
    </filter>
  </defs>
  
  <!-- Bakgrund -->
  <rect x="10" y="10" width="180" height="60" rx="30" fill="url(#grad1)" filter="url(#shadow)" />
  
  <!-- G-formen -->
  <path d="M50 40 C50 30, 60 20, 70 20 C80 20, 90 30, 90 40 C90 50, 80 60, 70 60 C65 60, 60 58, 55 53 L63 45 C65 48, 67 50, 70 50 C75 50, 80 45, 80 40 C80 35, 75 30, 70 30 C65 30, 60 35, 60 40 L50 40 Z" fill="white" />
  
  <!-- B-formen -->
  <path d="M110 20 L110 60 L130 60 C140 60, 150 55, 150 50 C150 45, 145 42, 140 40 C145 38, 148 35, 148 30 C148 25, 140 20, 130 20 L110 20 Z M120 30 L130 30 C133 30, 135 32, 135 35 C135 38, 133 40, 130 40 L120 40 L120 30 Z M120 50 L130 50 C133 50, 135 48, 135 45 C135 42, 133 40, 130 40 L120 40 L120 50 Z" fill="white" />
  
  <!-- Tärning-ikon -->
  <rect x="30" y="30" width="15" height="15" rx="3" fill="white" opacity="0.9" transform="rotate(-15, 30, 30)" />
  <circle cx="35" cy="35" r="1.5" fill="url(#grad1)" />
  <circle cx="38" cy="38" r="1.5" fill="url(#grad1)" />
  <circle cx="32" cy="32" r="1.5" fill="url(#grad1)" />
  
  <!-- Ljuseffekter -->
  <circle cx="170" cy="20" r="5" fill="white" opacity="0.5" />
  <circle cx="165" cy="25" r="3" fill="white" opacity="0.3" />
</svg> 