<svg width="100" height="100" viewBox="0 0 100 100" fill="none" xmlns="http://www.w3.org/2000/svg">
  <circle cx="5" cy="5" r="2" fill="currentColor" />
  <circle cx="25" cy="5" r="2" fill="currentColor" />
  <circle cx="45" cy="5" r="2" fill="currentColor" />
  <circle cx="65" cy="5" r="2" fill="currentColor" />
  <circle cx="85" cy="5" r="2" fill="currentColor" />
  
  <circle cx="5" cy="25" r="2" fill="currentColor" />
  <circle cx="25" cy="25" r="2" fill="currentColor" />
  <circle cx="45" cy="25" r="2" fill="currentColor" />
  <circle cx="65" cy="25" r="2" fill="currentColor" />
  <circle cx="85" cy="25" r="2" fill="currentColor" />
  
  <circle cx="5" cy="45" r="2" fill="currentColor" />
  <circle cx="25" cy="45" r="2" fill="currentColor" />
  <circle cx="45" cy="45" r="2" fill="currentColor" />
  <circle cx="65" cy="45" r="2" fill="currentColor" />
  <circle cx="85" cy="45" r="2" fill="currentColor" />
  
  <circle cx="5" cy="65" r="2" fill="currentColor" />
  <circle cx="25" cy="65" r="2" fill="currentColor" />
  <circle cx="45" cy="65" r="2" fill="currentColor" />
  <circle cx="65" cy="65" r="2" fill="currentColor" />
  <circle cx="85" cy="65" r="2" fill="currentColor" />
  
  <circle cx="5" cy="85" r="2" fill="currentColor" />
  <circle cx="25" cy="85" r="2" fill="currentColor" />
  <circle cx="45" cy="85" r="2" fill="currentColor" />
  <circle cx="65" cy="85" r="2" fill="currentColor" />
  <circle cx="85" cy="85" r="2" fill="currentColor" />
</svg> 