<svg width="400" height="400" viewBox="0 0 400 400" fill="none" xmlns="http://www.w3.org/2000/svg">
  <!-- Bakgrundsring -->
  <circle cx="200" cy="200" r="190" fill="#F1F5F9" stroke="#E2E8F0" stroke-width="2" />
  
  <!-- Hjulsegment -->
  <!-- Segment 1 -->
  <path d="M200 200 L380 200 A180 180 0 0 0 290 56.8 Z" fill="#2563EB" />
  <!-- Segment 2 -->
  <path d="M200 200 L290 56.8 A180 180 0 0 0 110 56.8 Z" fill="#60A5FA" />
  <!-- Segment 3 -->
  <path d="M200 200 L110 56.8 A180 180 0 0 0 20 200 Z" fill="#0EA5E9" />
  <!-- Segment 4 -->
  <path d="M200 200 L20 200 A180 180 0 0 0 110 343.2 Z" fill="#2563EB" />
  <!-- Segment 5 -->
  <path d="M200 200 L110 343.2 A180 180 0 0 0 290 343.2 Z" fill="#60A5FA" />
  <!-- Segment 6 -->
  <path d="M200 200 L290 343.2 A180 180 0 0 0 380 200 Z" fill="#0EA5E9" />
  
  <!-- Belöningsikoner i varje segment -->
  <!-- 1000 GC -->
  <g transform="translate(290, 128)">
    <circle cx="0" cy="0" r="20" fill="#F59E0B" />
    <circle cx="0" cy="0" r="16" fill="#FBBF24" />
    <text x="-14" y="5" font-family="Arial" font-size="12" font-weight="bold" fill="white">1000</text>
  </g>
  
  <!-- 500 GC -->
  <g transform="translate(200, 80)">
    <circle cx="0" cy="0" r="20" fill="#F59E0B" />
    <circle cx="0" cy="0" r="16" fill="#FBBF24" />
    <text x="-10" y="5" font-family="Arial" font-size="12" font-weight="bold" fill="white">500</text>
  </g>
  
  <!-- 250 GC -->
  <g transform="translate(110, 128)">
    <circle cx="0" cy="0" r="20" fill="#F59E0B" />
    <circle cx="0" cy="0" r="16" fill="#FBBF24" />
    <text x="-10" y="5" font-family="Arial" font-size="12" font-weight="bold" fill="white">250</text>
  </g>
  
  <!-- 100 GC -->
  <g transform="translate(110, 272)">
    <circle cx="0" cy="0" r="20" fill="#F59E0B" />
    <circle cx="0" cy="0" r="16" fill="#FBBF24" />
    <text x="-10" y="5" font-family="Arial" font-size="12" font-weight="bold" fill="white">100</text>
  </g>
  
  <!-- 50 GC -->
  <g transform="translate(200, 320)">
    <circle cx="0" cy="0" r="20" fill="#F59E0B" />
    <circle cx="0" cy="0" r="16" fill="#FBBF24" />
    <text x="-7" y="5" font-family="Arial" font-size="12" font-weight="bold" fill="white">50</text>
  </g>
  
  <!-- Specialpris -->
  <g transform="translate(290, 272)">
    <rect x="-15" y="-15" width="30" height="30" rx="6" fill="#EF4444" />
    <text x="-7" y="5" font-family="Arial" font-size="14" font-weight="bold" fill="white">?</text>
  </g>
  
  <!-- Mittencirkel -->
  <circle cx="200" cy="200" r="40" fill="white" stroke="#E2E8F0" stroke-width="3" />
  <circle cx="200" cy="200" r="35" fill="url(#gradient)" />
  <text x="186" y="206" font-family="Arial" font-size="22" font-weight="bold" fill="white">GC</text>
  
  <!-- Markör -->
  <g transform="translate(200, 30)">
    <polygon points="0,0 -15,30 15,30" fill="#EF4444" />
    <circle cx="0" cy="15" r="10" fill="#EF4444" />
    <circle cx="0" cy="15" r="5" fill="white" />
  </g>
  
  <!-- Små dekorelement runt hjulet -->
  <circle cx="40" cy="100" r="10" fill="#60A5FA" opacity="0.5" />
  <circle cx="360" cy="100" r="10" fill="#60A5FA" opacity="0.5" />
  <circle cx="40" cy="300" r="10" fill="#60A5FA" opacity="0.5" />
  <circle cx="360" cy="300" r="10" fill="#60A5FA" opacity="0.5" />
  
  <!-- Gradienter -->
  <defs>
    <linearGradient id="gradient" x1="0%" y1="0%" x2="100%" y2="100%">
      <stop offset="0%" stop-color="#2563EB" />
      <stop offset="100%" stop-color="#0EA5E9" />
    </linearGradient>
  </defs>
</svg> 